<svg width="1200" height="800" viewBox="0 0 1200 800" fill="none" xmlns="http://www.w3.org/2000/svg">
  <rect width="1200" height="800" rx="36" fill="#0F172A"/>
  <rect x="40" y="40" width="1120" height="720" rx="28" fill="url(#bg)"/>
  <rect x="180" y="230" width="180" height="320" rx="20" fill="#E7ECF4"/>
  <rect x="210" y="200" width="120" height="40" rx="14" fill="#F4C95D"/>
  <rect x="220" y="270" width="100" height="220" rx="18" fill="#14284A"/>
  <rect x="500" y="180" width="220" height="360" rx="24" fill="#E7ECF4"/>
  <rect x="530" y="150" width="160" height="40" rx="14" fill="#F4C95D"/>
  <rect x="540" y="222" width="140" height="260" rx="18" fill="#14284A"/>
  <rect x="780" y="240" width="220" height="320" rx="24" fill="#E7ECF4"/>
  <rect x="810" y="210" width="160" height="40" rx="14" fill="#F4C95D"/>
  <rect x="820" y="272" width="140" height="240" rx="18" fill="#14284A"/>
  <path d="M290 560H910" stroke="#F4C95D" stroke-width="8" stroke-linecap="round"/>
  <path d="M240 640H620" stroke="#8FB7E8" stroke-width="8" stroke-linecap="round"/>
  <path d="M220 220L180 180" stroke="#F4C95D" stroke-width="8" stroke-linecap="round"/>
  <path d="M330 220L370 180" stroke="#F4C95D" stroke-width="8" stroke-linecap="round"/>
  <path d="M575 150L540 110" stroke="#F4C95D" stroke-width="8" stroke-linecap="round"/>
  <path d="M670 150L705 110" stroke="#F4C95D" stroke-width="8" stroke-linecap="round"/>
  <defs>
    <linearGradient id="bg" x1="120" y1="80" x2="1030" y2="700" gradientUnits="userSpaceOnUse">
      <stop stop-color="#14284A"/>
      <stop offset="1" stop-color="#0B1428"/>
    </linearGradient>
  </defs>
</svg>
